<?xml version="1.0" encoding="utf-8"?>
<!-- Generator: Adobe Illustrator 19.2.1, SVG Export Plug-In . SVG Version: 6.00 Build 0)  -->
<svg version="1.1" id="图层_1" xmlns="http://www.w3.org/2000/svg" xmlns:xlink="http://www.w3.org/1999/xlink" x="0px" y="0px"
	 viewBox="0 0 258 67" style="enable-background:new 0 0 258 67;" xml:space="preserve">
<style type="text/css">
	.st0{fill:#347EFF;}
	.st1{fill:#292F3A;}
</style>
<g>
	<path class="st0" d="M66.3,30.1H45.5c-1.4-5.4-6.3-9.4-12.1-9.4c-6.9,0-12.5,5.6-12.5,12.5c0,6.9,5.6,12.5,12.5,12.5
		c5.8,0,10.7-4,12.1-9.4h14.4C58.3,49.7,47,60.1,33.4,60.1c-14.7,0-26.7-12-26.7-26.7c0-14.7,12-26.7,26.7-26.7
		c4.5,0,8.8,1.1,12.5,3.1c-0.4,1.1-0.6,2.2-0.6,3.4c0,5.6,4.5,10.1,10.1,10.1c5.6,0,10.1-4.5,10.1-10.1C65.5,7.5,61,3,55.4,3
		c-2,0-3.9,0.6-5.5,1.6C45,1.8,39.4,0.2,33.4,0.2C15.1,0.2,0.2,15,0.2,33.3s14.9,33.1,33.1,33.1s33.1-14.9,33.1-33.1
		C66.5,32.2,66.4,31.2,66.3,30.1z M33.4,39.5c-3.4,0-6.2-2.8-6.2-6.2c0-3.4,2.8-6.2,6.2-6.2c3.4,0,6.2,2.8,6.2,6.2
		C39.5,36.7,36.8,39.5,33.4,39.5z M55.4,9.4c2.1,0,3.7,1.7,3.7,3.7c0,2.1-1.7,3.7-3.7,3.7c-2.1,0-3.7-1.7-3.7-3.7
		C51.7,11,53.4,9.4,55.4,9.4z"/>
	<g>
		<path class="st1" d="M133.9,48.3c0,0.3-0.1,0.5-0.2,0.6c-0.1,0.1-0.4,0.2-0.7,0.3c-2.6,0.4-5.4,0.6-8.3,0.6c-1.5,0-2.9-0.1-4-0.4
			c-1.1-0.2-2.2-0.7-3.1-1.3c-1-0.6-1.7-1.5-2.2-2.7c-0.5-1.2-0.7-2.7-0.7-4.5V25.7c0-1.8,0.2-3.3,0.7-4.5c0.5-1.2,1.2-2.1,2.2-2.7
			c1-0.6,2-1.1,3.1-1.3c1.1-0.2,2.4-0.4,4-0.4c2.9,0,5.7,0.2,8.3,0.6c0.3,0.1,0.5,0.2,0.7,0.3c0.1,0.1,0.2,0.3,0.2,0.6v2.8
			c0,0.2-0.1,0.4-0.3,0.6c-0.2,0.2-0.4,0.3-0.6,0.3h-8.9c-1.3,0-2.2,0.3-2.7,0.8c-0.5,0.5-0.8,1.5-0.8,2.9v4.7h11.8
			c0.2,0,0.4,0.1,0.6,0.3c0.2,0.2,0.3,0.4,0.3,0.6v3.1c0,0.2-0.1,0.4-0.3,0.6c-0.2,0.2-0.4,0.3-0.6,0.3h-11.8v5.6
			c0,1.4,0.3,2.4,0.8,2.9c0.5,0.5,1.4,0.8,2.7,0.8h8.9c0.2,0,0.4,0.1,0.6,0.3c0.2,0.2,0.3,0.4,0.3,0.6V48.3z"/>
		<path class="st1" d="M159,48.3c0,0.3-0.1,0.5-0.2,0.6c-0.1,0.1-0.4,0.2-0.7,0.3c-2.6,0.4-5.4,0.6-8.3,0.6c-1.5,0-2.9-0.1-4-0.4
			c-1.1-0.2-2.2-0.7-3.1-1.3c-1-0.6-1.7-1.5-2.2-2.7c-0.5-1.2-0.7-2.7-0.7-4.5V25.7c0-1.8,0.2-3.3,0.7-4.5c0.5-1.2,1.2-2.1,2.2-2.7
			c1-0.6,2-1.1,3.1-1.3c1.1-0.2,2.4-0.4,4-0.4c2.9,0,5.7,0.2,8.3,0.6c0.3,0.1,0.5,0.2,0.7,0.3c0.1,0.1,0.2,0.3,0.2,0.6v2.8
			c0,0.2-0.1,0.4-0.3,0.6c-0.2,0.2-0.4,0.3-0.6,0.3h-8.9c-1.3,0-2.2,0.3-2.7,0.8c-0.5,0.5-0.8,1.5-0.8,2.9v4.7h11.8
			c0.2,0,0.4,0.1,0.6,0.3c0.2,0.2,0.3,0.4,0.3,0.6v3.1c0,0.2-0.1,0.4-0.3,0.6c-0.2,0.2-0.4,0.3-0.6,0.3h-11.8v5.6
			c0,1.4,0.3,2.4,0.8,2.9c0.5,0.5,1.4,0.8,2.7,0.8h8.9c0.2,0,0.4,0.1,0.6,0.3c0.2,0.2,0.3,0.4,0.3,0.6V48.3z"/>
		<path class="st1" d="M185,20.5h-8.5v28.2c0,0.2-0.1,0.4-0.2,0.6c-0.1,0.2-0.3,0.3-0.6,0.3h-2.4c-0.2,0-0.4-0.1-0.6-0.3
			c-0.1-0.2-0.2-0.4-0.2-0.6V20.5h-8.5c-0.2,0-0.4-0.1-0.6-0.2c-0.2-0.1-0.3-0.3-0.3-0.5v-1.9c0-0.2,0.1-0.4,0.3-0.6
			c0.2-0.1,0.4-0.2,0.6-0.2h21c0.6,0,0.8,0.3,0.8,0.8v1.9C185.9,20.2,185.6,20.5,185,20.5z"/>
		<path class="st1" d="M208.3,49.4c-0.1,0.1-0.2,0.2-0.3,0.2c-0.4,0.1-1,0.1-1.7,0.1c-0.7,0-1.4,0-2.2,0.1c-0.8,0-1.6,0-2.4,0
			c-0.8,0-1.5,0-2.2,0c-3.1,0-5.4-0.6-7-1.9c-1.6-1.2-2.3-3.3-2.3-6.2V24.9c0-2.9,0.8-5,2.3-6.2c1.6-1.2,3.9-1.9,7-1.9
			c0.6,0,1.4,0,2.2,0c0.8,0,1.6,0,2.4,0c0.8,0,1.5,0,2.2,0.1c0.7,0,1.3,0.1,1.7,0.1c0.1,0,0.3,0.1,0.3,0.2c0.1,0.1,0.1,0.2,0.1,0.4
			v2.2c0,0.4-0.2,0.5-0.5,0.5h-8.4c-1.2,0-2.1,0.1-2.8,0.2c-0.7,0.2-1.2,0.4-1.6,0.8c-0.4,0.4-0.6,0.8-0.8,1.4
			c-0.1,0.6-0.2,1.3-0.2,2.1V31h13.4c0.2,0,0.4,0.1,0.6,0.3c0.2,0.2,0.3,0.4,0.3,0.6v1.6c0,0.2-0.1,0.4-0.3,0.6
			c-0.2,0.2-0.4,0.3-0.6,0.3h-13.4v7.4c0,0.8,0.1,1.5,0.2,2.1c0.1,0.6,0.4,1.1,0.8,1.4c0.4,0.4,0.9,0.6,1.6,0.8
			c0.7,0.2,1.6,0.2,2.8,0.2h8.4c0.3,0,0.5,0.2,0.5,0.5V49C208.4,49.1,208.4,49.3,208.3,49.4z"/>
		<path class="st1" d="M232,41.1c0,1-0.2,2.1-0.5,3.1c-0.3,1-0.9,2-1.7,2.8c-0.8,0.8-1.9,1.5-3.3,2c-1.4,0.5-3.2,0.8-5.3,0.8
			c-1.5,0-2.9-0.1-4.1-0.2c-1.2-0.1-2.2-0.3-3.2-0.4c-0.4-0.1-0.6-0.1-0.7-0.3c-0.1-0.1-0.1-0.3-0.1-0.5v-1.7c0-0.2,0.1-0.4,0.2-0.5
			c0.1-0.1,0.3-0.2,0.5-0.2h0.1c0.5,0,1.1,0.1,1.7,0.1c0.6,0,1.3,0.1,1.9,0.1c0.7,0,1.3,0,1.9,0c0.6,0,1.2,0,1.7,0
			c1.3,0,2.4-0.1,3.2-0.4c0.9-0.2,1.5-0.6,2-1c0.5-0.4,0.8-1,1-1.6c0.2-0.6,0.3-1.3,0.3-2.1c0-0.6-0.1-1.1-0.3-1.5
			c-0.2-0.5-0.5-0.9-0.9-1.3c-0.4-0.4-0.9-0.9-1.6-1.4c-0.7-0.5-1.5-1-2.5-1.6l-4.2-2.6c-2-1.2-3.5-2.4-4.5-3.7
			c-1-1.2-1.5-2.7-1.5-4.5c0-2.6,0.9-4.6,2.7-5.8c1.8-1.2,4.4-1.9,7.7-1.9c0.6,0,1.3,0,2,0c0.7,0,1.4,0.1,2.1,0.1
			c0.7,0,1.3,0.1,1.9,0.2c0.6,0.1,1.1,0.1,1.5,0.2c0.5,0.1,0.7,0.3,0.7,0.7v1.9c0,0.5-0.2,0.7-0.7,0.7h-0.1c-1-0.1-2.1-0.1-3.5-0.2
			c-1.4-0.1-2.7-0.1-4-0.1c-2.3,0-3.9,0.3-4.9,0.9c-1,0.6-1.5,1.7-1.5,3.3c0,0.5,0.1,1,0.3,1.4c0.2,0.4,0.5,0.8,0.8,1.2
			c0.4,0.4,0.9,0.8,1.5,1.2c0.6,0.4,1.3,0.9,2.1,1.4l4,2.4c1.3,0.8,2.3,1.5,3.2,2.2c0.9,0.7,1.6,1.4,2.1,2.1
			c0.6,0.7,0.9,1.4,1.2,2.2C231.9,39.4,232,40.2,232,41.1z"/>
		<path class="st1" d="M256.9,20.5h-8.5v28.2c0,0.2-0.1,0.4-0.2,0.6c-0.1,0.2-0.3,0.3-0.6,0.3h-2.4c-0.2,0-0.4-0.1-0.6-0.3
			c-0.1-0.2-0.2-0.4-0.2-0.6V20.5h-8.5c-0.2,0-0.4-0.1-0.6-0.2c-0.2-0.1-0.3-0.3-0.3-0.5v-1.9c0-0.2,0.1-0.4,0.3-0.6
			c0.2-0.1,0.4-0.2,0.6-0.2h21c0.6,0,0.8,0.3,0.8,0.8v1.9C257.8,20.2,257.5,20.5,256.9,20.5z"/>
		<path class="st1" d="M93.8,23.9c1.1-1.3,2.8-2,4.9-2c3.5,0,5,0.9,7.2,2c0.4,0.2,0.8,0.1,1.1-0.3c0.3-0.4,1.3-1.8,1.6-2.3
			c0.2-0.3,0.4-0.8,0-1.2c-2.7-2.4-6.8-3.5-10.5-3.5c-1.4,0-2.9,0.2-4.2,0.7c-1.3,0.5-2.6,1.2-3.8,2.1c-1.2,1-2.2,2.4-2.9,4.2
			c-0.7,1.8-1.1,4-1.1,6.4v6.3c0,2,0.3,3.8,0.8,5.3c0.5,1.6,1.2,2.9,2,3.8c0.8,1,1.8,1.8,2.8,2.4c1.1,0.7,2.1,1.1,3.1,1.4
			c1,0.3,2.5,0.4,3.6,0.4c3.9,0,7.2-0.8,9-1.8c0.5-0.3,0.8-0.7,0.8-1.3V31.5c0-0.2-0.1-0.4-0.3-0.6c-0.2-0.2-0.4-0.3-0.6-0.3h-8.6
			c-0.2,0-0.4,0.1-0.6,0.3c-0.2,0.2-0.3,0.4-0.3,0.6v3.1c0,0.2,0.1,0.4,0.3,0.6c0.2,0.2,0.4,0.3,0.6,0.3h3.6v8.5
			c-0.9,0.4-2.4,0.5-3.6,0.5c-1.8,0-3.7-0.6-4.8-1.9c-1.1-1.3-1.7-3.4-1.7-6.2v-6.3C92.2,27.3,92.8,25.2,93.8,23.9z"/>
	</g>
</g>
</svg>
